# xmcd
#
# Track frame offsets:
#	182
#	17637
#	33355
#	52537
#	68652
#	87505
#	106102
#	124737
#	144390
#
# Disc length: 2210 seconds
#
# Revision: 12
# Processed by: cddbd v1.5.2PL0 Copyright (c) Steve Scherf et al.
# Submitted via: audiograbber 1.83.01
#
DISCID=6708a009
DTITLE=Linda Ronstadt and The Nelson Riddle Orchestra - What's New
DYEAR=1983
DGENRE=Vocal
TTITLE0=What's New
TTITLE1=I've Got a Crush On You
TTITLE2=Guess I'll Hang My Tears Out to Dry
TTITLE3=Crazy He Calls Me
TTITLE4=Someone to Watch Over Me
TTITLE5=I Don't Stand a Ghost of a Chance with You
TTITLE6=What'll I Do
TTITLE7=Lover Man (Oh Where Can You Be)
TTITLE8=Good-Bye
EXTD=
EXTT0=
EXTT1=
EXTT2=
EXTT3=
EXTT4=
EXTT5=
EXTT6=
EXTT7=
EXTT8=
PLAYORDER=
